<svg xmlns="http://www.w3.org/2000/svg" version="1.1" xmlns:xlink="http://www.w3.org/1999/xlink" xmlns:svgjs="http://svgjs.dev/svgjs" width="1000" height="1000" viewBox="0 0 1000 1000"><rect width="1000" height="1000" fill="#ffffff"></rect><g transform="matrix(0.7,0,0,0.7,149.57575757575756,282.1265587044535)"><svg viewBox="0 0 396 247" data-background-color="#f89de4" preserveAspectRatio="xMidYMid meet" height="623" width="1000" xmlns="http://www.w3.org/2000/svg" xmlns:xlink="http://www.w3.org/1999/xlink"><defs></defs><g id="tight-bounds" transform="matrix(1,0,0,1,0.2400000000000091,-0.09999999999999432)"><svg viewBox="0 0 395.52 247.2" height="247.2" width="395.52"><g><svg></svg></g><g><svg viewBox="0 0 395.52 247.2" height="247.2" width="395.52"><g transform="matrix(1,0,0,1,75.54432000000001,80.68145016722409)"><svg viewBox="0 0 244.43135999999996 85.83709966555183" height="85.83709966555183" width="244.43135999999996"><g><svg viewBox="0 0 244.43135999999996 85.83709966555183" height="85.83709966555183" width="244.43135999999996"><g><svg viewBox="0 0 244.43135999999996 85.83709966555183" height="85.83709966555183" width="244.43135999999996"><g><svg viewBox="0 0 244.43135999999996 85.83709966555183" height="85.83709966555183" width="244.43135999999996"><g><svg viewBox="0 0 244.43135999999996 85.83709966555183" height="85.83709966555183" width="244.43135999999996"><g><svg viewBox="0 0 244.43135999999996 85.83709966555183" height="85.83709966555183" width="244.43135999999996"><g transform="matrix(1,0,0,1,0,0)"><svg width="244.43135999999996" viewBox="0.6000000238418579 -41.5 119.59000396728516 42" height="85.83709966555183" data-palette-color="#ffffff"><path d="M40.25-38.5L40.75-27.5 38.6-27.5Q38.45-29.95 37.88-31.58 37.3-33.2 36.25-34.18 35.2-35.15 33.7-35.52 32.2-35.9 30.2-35.9L30.2-35.9Q28.25-35.9 27.08-35.83 25.9-35.75 25.28-35.58 24.65-35.4 24.45-35.1 24.25-34.8 24.25-34.35L24.25-34.35 24.25-8.15Q24.25-6.55 24.48-5.4 24.7-4.25 25.4-3.53 26.1-2.8 27.45-2.43 28.8-2.05 31-2L31-2 31 0 10.05 0 10.05-2Q12.3-2.05 13.65-2.43 15-2.8 15.73-3.53 16.45-4.25 16.68-5.4 16.9-6.55 16.9-8.15L16.9-8.15 16.9-34.35Q16.9-34.8 16.73-35.1 16.55-35.4 16-35.58 15.45-35.75 14.43-35.83 13.4-35.9 11.75-35.9L11.75-35.9Q9.95-35.9 8.3-35.73 6.65-35.55 5.4-34.73 4.15-33.9 3.38-32.23 2.6-30.55 2.55-27.5L2.55-27.5 0.6-27.5 1.1-38.5 40.25-38.5ZM53.65-27L53.65-8.2Q53.65-6.2 53.8-5 53.95-3.8 54.4-3.15 54.85-2.5 55.7-2.27 56.55-2.05 58-2L58-2 58 0 42.25 0 42.25-2Q43.65-2.05 44.52-2.33 45.4-2.6 45.87-3.23 46.35-3.85 46.52-4.98 46.7-6.1 46.7-7.85L46.7-7.85 46.7-14Q46.7-16.9 46.6-18.78 46.5-20.65 46.35-21.35L46.35-21.35Q46.1-22.6 45.22-23 44.35-23.4 42.05-23.4L42.05-23.4 42.05-25.1 53.65-27ZM46.3-37.6L46.3-37.6Q46.3-39.25 47.42-40.38 48.55-41.5 50.15-41.5L50.15-41.5Q51.8-41.5 52.92-40.38 54.05-39.25 54.05-37.6L54.05-37.6Q54.05-36 52.92-34.88 51.8-33.75 50.15-33.75L50.15-33.75Q48.55-33.75 47.42-34.88 46.3-36 46.3-37.6ZM80.85-17.25L74.1 0.5 70.35 0.5 63.5-20.05Q62.7-22.45 61.65-23.43 60.6-24.4 58.85-24.5L58.85-24.5 58.85-26.5 73.15-26.5 73.15-24.5Q71.35-24.45 70.65-23.98 69.95-23.5 69.95-22.35L69.95-22.35Q69.95-21.8 70.1-21.15 70.25-20.5 70.5-19.65L70.5-19.65 73.65-7.95 73.85-7.95 80.85-26.5 84.95-26.5 90.2-7.95 90.45-7.95 94.45-18.3Q94.95-19.55 95.15-20.48 95.35-21.4 95.35-22.1L95.35-22.1Q95.35-23.4 94.5-23.95 93.65-24.5 92.2-24.5L92.2-24.5 92.2-26.5 102.95-26.5 102.95-24.5Q102.05-24.5 101.45-24.3 100.85-24.1 100.25-23.35 99.65-22.6 98.95-21.05 98.25-19.5 97.2-16.8L97.2-16.8 90.3 0.5 86.35 0.5 81.05-17.25 80.85-17.25ZM115.84-27L115.84-8.2Q115.84-6.2 115.99-5 116.14-3.8 116.59-3.15 117.04-2.5 117.89-2.27 118.74-2.05 120.19-2L120.19-2 120.19 0 104.44 0 104.44-2Q105.84-2.05 106.72-2.33 107.59-2.6 108.07-3.23 108.54-3.85 108.72-4.98 108.89-6.1 108.89-7.85L108.89-7.85 108.89-14Q108.89-16.9 108.79-18.78 108.69-20.65 108.54-21.35L108.54-21.35Q108.29-22.6 107.42-23 106.54-23.4 104.24-23.4L104.24-23.4 104.24-25.1 115.84-27ZM108.49-37.6L108.49-37.6Q108.49-39.25 109.62-40.38 110.74-41.5 112.34-41.5L112.34-41.5Q113.99-41.5 115.12-40.38 116.24-39.25 116.24-37.6L116.24-37.6Q116.24-36 115.12-34.88 113.99-33.75 112.34-33.75L112.34-33.75Q110.74-33.75 109.62-34.88 108.49-36 108.49-37.6Z" opacity="1" transform="matrix(1,0,0,1,0,0)" fill="#000000" class="undefined-text-0" data-fill-palette-color="primary" id="text-0"></path></svg></g></svg></g></svg></g></svg></g></svg></g></svg></g></svg></g><g><path d="M244.431 186.783A122.216 122.216 0 1 1 244.431 60.417L236.69 60.417A114.475 114.475 0 1 0 236.69 186.783L244.431 186.783" fill="#ffffff" stroke="transparent" data-fill-palette-color="tertiary"></path></g></svg></g></svg><rect width="395.52" height="247.2" fill="none" stroke="none" visibility="hidden"></rect></g></svg></g></svg>