<svg width="267" height="48" viewBox="0 0 267 48" fill="none" xmlns="http://www.w3.org/2000/svg">
<path d="M19.1685 0.214286L0.679735 11.3571C0.271894 11.6429 0 12.0714 0 12.6429V35.2143C0 35.7857 0.271894 36.2143 0.679735 36.5L19.3045 47.7857C19.7123 48.0714 20.2561 48.0714 20.7999 47.7857L39.4246 36.5C39.8325 36.2143 40.1044 35.7857 40.1044 35.2143V12.7857C40.1044 12.2143 39.8325 11.7857 39.4246 11.5L20.7999 0.214286C20.2561 -0.0714286 19.7123 -0.0714286 19.1685 0.214286Z" fill="#EC2226"/>
<path d="M24.1987 42.7857L33.3072 20.9286L37.3856 18.5H37.5215L28.2771 40.2143L24.1987 42.6429V42.7857Z" fill="white"/>
<path d="M24.1987 26.5001L34.1229 36.643L37.5215 34.643L28.2771 24.0715L24.1987 26.5001Z" fill="white"/>
<path d="M11.5556 40.2143L15.77 42.7857L11.5556 24.0714L6.66151 21.0714L2.44714 34.7857L5.84582 36.7857L6.66151 34.2143L11.1477 36.9286L11.5556 40.2143ZM7.34125 31.5L9.10854 25.5L10.468 33.5L7.34125 31.5Z" fill="white"/>
<path d="M19.9845 25.3572C20.6603 25.3572 21.2081 24.7816 21.2081 24.0715C21.2081 23.3614 20.6603 22.7858 19.9845 22.7858C19.3088 22.7858 18.761 23.3614 18.761 24.0715C18.761 24.7816 19.3088 25.3572 19.9845 25.3572Z" fill="white"/>
<path d="M3.26296 14.3571C3.4882 14.3571 3.67078 14.1653 3.67078 13.9286C3.67078 13.6919 3.4882 13.5 3.26296 13.5C3.03771 13.5 2.85513 13.6919 2.85513 13.9286C2.85513 14.1653 3.03771 14.3571 3.26296 14.3571Z" fill="white"/>
<path d="M19.9847 22.6429L3.53509 13.5L2.99127 14.3571L19.033 24.7857L19.9847 22.6429Z" fill="white"/>
<path d="M36.57 14.3571C36.7952 14.3571 36.9778 14.1653 36.9778 13.9286C36.9778 13.6919 36.7952 13.5 36.57 13.5C36.3447 13.5 36.1621 13.6919 36.1621 13.9286C36.1621 14.1653 36.3447 14.3571 36.57 14.3571Z" fill="white"/>
<path d="M19.9847 22.6429L36.4343 13.5L36.8421 14.3571L20.9363 24.7857L19.9847 22.6429Z" fill="white"/>
<path d="M20.3927 43.2144H19.441L18.6253 24.0715H21.2084L20.3927 43.2144Z" fill="white"/>
<path d="M19.9845 43.6429C20.2098 43.6429 20.3924 43.451 20.3924 43.2143C20.3924 42.9776 20.2098 42.7858 19.9845 42.7858C19.7593 42.7858 19.5767 42.9776 19.5767 43.2143C19.5767 43.451 19.7593 43.6429 19.9845 43.6429Z" fill="white"/>
<path d="M59.9531 34.2142L68.7897 13.7856H71.5086L80.3452 34.2142H77.4903L69.6053 15.4999H70.6929L62.808 34.2142H59.9531ZM63.7596 29.0714L64.5753 26.7856H75.4511L76.2668 29.0714H63.7596Z" fill="#11192A"/>
<path d="M81.9763 34.2143V11.9286H84.6952V22.7857L84.4233 26.3572L84.5593 29.9286V34.2143H81.9763ZM89.7253 34.3572C88.5017 34.3572 87.2782 34.0715 86.3266 33.5C85.375 32.9286 84.5593 32.0715 83.8795 30.9286C83.3357 29.7857 83.0639 28.3572 83.0639 26.5C83.0639 24.7857 83.3357 23.3572 84.0155 22.0714C84.5593 20.9286 85.375 20.0714 86.4626 19.5C87.4142 18.9286 88.6377 18.6429 89.8612 18.6429C91.3566 18.6429 92.5802 18.9286 93.6677 19.6429C94.7553 20.3572 95.7069 21.2143 96.2507 22.3572C96.9305 23.5 97.2024 24.9286 97.2024 26.5C97.2024 28.0714 96.9305 29.5 96.2507 30.6429C95.571 31.7857 94.7553 32.7857 93.6677 33.3572C92.4442 34.0715 91.2207 34.3572 89.7253 34.3572ZM89.5893 31.9286C90.5409 31.9286 91.3566 31.6429 92.1723 31.2143C92.988 30.7857 93.5318 30.0715 93.9396 29.3572C94.3475 28.5 94.6194 27.6429 94.6194 26.5C94.6194 25.3572 94.3475 24.5 93.9396 23.6429C93.5318 22.7857 92.852 22.2143 92.1723 21.7857C91.3566 21.3572 90.5409 21.0714 89.5893 21.0714C88.6377 21.0714 87.822 21.3572 87.1423 21.7857C86.3266 22.2143 85.7828 22.9286 85.3749 23.6429C84.9671 24.5 84.6952 25.3572 84.6952 26.5C84.6952 27.6429 84.9671 28.5 85.3749 29.3572C85.7828 30.2143 86.4626 30.7857 87.1423 31.2143C87.822 31.6429 88.6377 31.9286 89.5893 31.9286Z" fill="#11192A"/>
<path d="M104.272 34.357C103.184 34.357 102.233 34.2142 101.417 33.7856C100.601 33.357 99.9216 32.9284 99.5137 32.2142C99.1059 31.4999 98.834 30.7856 98.834 29.9284C98.834 29.0713 98.97 28.357 99.3778 27.6427C99.7857 26.9284 100.329 26.357 101.281 26.0713C102.097 25.6427 103.32 25.4999 104.816 25.4999H109.438V27.4999H104.952C103.592 27.4999 102.776 27.7856 102.233 28.2142C101.825 28.6427 101.553 29.2142 101.553 29.9284C101.553 30.6427 101.825 31.357 102.369 31.7856C102.912 32.2142 103.728 32.4999 104.816 32.4999C105.767 32.4999 106.719 32.2142 107.399 31.7856C108.214 31.357 108.622 30.6427 109.03 29.7856L109.574 31.6427C109.166 32.4999 108.622 33.2142 107.671 33.7856C106.719 34.0713 105.631 34.357 104.272 34.357ZM109.166 34.2142V30.9284L109.03 30.357V24.7856C109.03 23.6427 108.758 22.6427 108.078 22.0713C107.399 21.357 106.447 21.0713 105.088 21.0713C104.272 21.0713 103.32 21.2142 102.505 21.4999C101.689 21.7856 101.009 22.2142 100.465 22.6427L99.3778 20.4999C100.194 19.9284 101.009 19.357 102.097 19.0713C103.184 18.7856 104.272 18.4999 105.495 18.4999C107.535 18.4999 109.03 19.0713 110.118 20.0713C111.205 21.0713 111.749 22.6427 111.749 24.7856V34.2142H109.166Z" fill="#11192A"/>
<path d="M122.76 18.6428C123.984 18.6428 125.072 18.9285 125.887 19.3571C126.839 19.7857 127.519 20.6428 128.062 21.5C128.606 22.5 128.878 23.7857 128.878 25.2143V34.2142H126.159V25.6428C126.159 24.2142 125.751 23.0714 125.072 22.2143C124.392 21.3571 123.44 21.0714 122.217 21.0714C121.265 21.0714 120.449 21.2143 119.77 21.6428C119.09 22.0714 118.546 22.6428 118.138 23.3571C117.73 24.0714 117.594 25.0714 117.594 26.2142V34.2142H114.876V18.7857H117.459V22.9285L117.051 21.7857C117.594 20.7857 118.274 19.9285 119.226 19.3571C120.313 18.9285 121.537 18.6428 122.76 18.6428Z" fill="#11192A"/>
<path d="M137.986 33.5C136.627 33.5 135.267 33.2142 134.18 32.5C133.092 31.9285 132.141 30.9285 131.461 29.9285C130.781 28.7857 130.509 27.5 130.509 26.0714C130.509 24.6428 130.781 23.2143 131.461 22.2143C132.141 21.0714 132.956 20.2142 134.18 19.6428C135.267 19.0714 136.627 18.6428 137.986 18.6428C139.21 18.6428 140.433 18.9285 141.385 19.5C142.473 20.0714 143.288 20.7857 143.832 21.9285C144.512 23.0714 144.784 24.5 144.784 26.0714C144.784 27.7857 144.512 29.0714 143.832 30.2143C143.152 31.3571 142.337 32.2143 141.385 32.6428C140.433 33.2143 139.21 33.5 137.986 33.5ZM138.394 39.9285C137.035 39.9285 135.675 39.7857 134.452 39.3571C133.228 38.9285 132.141 38.3571 131.325 37.6428L132.549 35.5C133.228 36.0714 134.044 36.6428 135.132 36.9285C136.083 37.3571 137.171 37.5 138.258 37.5C140.026 37.5 141.249 37.0714 142.065 36.2143C142.881 35.3571 143.288 34.0714 143.288 32.3571V29.0714L143.56 26.0714L143.424 22.9285V18.6428H146.007V31.9285C146.007 34.6428 145.328 36.6428 144.104 37.9285C142.745 39.3571 140.841 39.9285 138.394 39.9285ZM138.258 31.0714C139.21 31.0714 140.162 30.9285 140.841 30.5C141.657 30.0714 142.201 29.5 142.609 28.7857C143.016 28.0714 143.288 27.2142 143.288 26.2142C143.288 25.2142 143.016 24.3571 142.609 23.6428C142.201 22.9285 141.521 22.3571 140.841 21.9285C140.026 21.5 139.21 21.3571 138.258 21.3571C137.307 21.3571 136.355 21.5 135.675 21.9285C134.86 22.3571 134.316 22.9285 133.908 23.6428C133.5 24.3571 133.228 25.2142 133.228 26.2142C133.228 27.2142 133.5 28.0714 133.908 28.7857C134.316 29.5 134.996 30.0714 135.675 30.5C136.491 30.9285 137.307 31.0714 138.258 31.0714Z" fill="#11192A"/>
<path d="M160.418 30.3571H171.022V34.2142H156.067V13.7856H171.022V17.4999H160.418V30.3571ZM160.146 21.9285H169.526V25.6428H160.146V21.9285Z" fill="#11192A"/>
<path d="M172.653 34.2143L179.314 25.0714L179.178 27.6428L172.789 18.6428H177.547L181.625 24.5H179.858L184.072 18.6428H188.695L182.305 27.5V25.0714L188.967 34.3571H184.072L179.858 28.0714L181.625 28.3571L177.411 34.3571H172.653V34.2143Z" fill="#11192A"/>
<path d="M191.414 40.2143V18.5H195.492V21.6428L195.356 26.3571L195.628 30.9286V40.0714H191.414V40.2143ZM200.25 34.3571C199.027 34.3571 197.939 34.0714 196.987 33.5C196.036 32.9286 195.356 32.0714 194.812 30.7857C194.269 29.6428 193.997 28.0714 193.997 26.2143C193.997 24.3571 194.269 22.7857 194.812 21.6428C195.356 20.5 196.036 19.6428 196.987 18.9286C197.939 18.3571 199.027 18.0714 200.386 18.0714C201.746 18.0714 203.105 18.3571 204.193 19.0714C205.28 19.7857 206.232 20.6428 206.912 21.9286C207.591 23.0714 207.863 24.5 207.863 26.2143C207.863 27.9286 207.591 29.3571 206.912 30.5C206.232 31.6428 205.416 32.6428 204.193 33.3571C202.969 34.0714 201.61 34.3571 200.25 34.3571ZM199.57 30.6428C200.25 30.6428 200.93 30.5 201.474 30.0714C202.017 29.7857 202.425 29.2143 202.833 28.6428C203.241 27.9286 203.377 27.2143 203.377 26.3571C203.377 25.5 203.241 24.6428 202.833 24.0714C202.425 23.5 202.017 22.9286 201.474 22.6428C200.93 22.3571 200.25 22.0714 199.57 22.0714C198.891 22.0714 198.211 22.2143 197.667 22.6428C197.123 22.9286 196.58 23.5 196.308 24.0714C195.9 24.6428 195.764 25.5 195.764 26.3571C195.764 27.2143 195.9 28.0714 196.308 28.6428C196.716 29.3571 197.123 29.7857 197.667 30.0714C198.075 30.5 198.755 30.6428 199.57 30.6428Z" fill="#11192A"/>
<path d="M210.174 34.2142V18.4999H214.253V22.9285L213.709 21.6428C214.117 20.4999 214.797 19.6428 215.884 19.0714C216.836 18.4999 218.059 18.2142 219.419 18.2142V22.4999C219.283 22.4999 219.147 22.4999 218.875 22.3571C218.739 22.3571 218.603 22.3571 218.467 22.3571C217.244 22.3571 216.292 22.7857 215.612 23.4999C214.933 24.2142 214.525 25.3571 214.525 26.7857V34.2142H210.174Z" fill="#11192A"/>
<path d="M229.615 34.3571C227.848 34.3571 226.488 34.0713 225.129 33.3571C223.905 32.6428 222.818 31.6428 222.138 30.4999C221.458 29.3571 221.05 27.9285 221.05 26.3571C221.05 24.7856 221.322 23.3571 222.002 22.2142C222.682 20.9285 223.633 20.0713 224.857 19.3571C226.08 18.6428 227.44 18.3571 228.935 18.3571C230.431 18.3571 231.654 18.6428 232.878 19.3571C234.101 20.0713 234.917 20.9285 235.597 22.2142C236.276 23.3571 236.684 24.9285 236.684 26.4999C236.684 26.6428 236.684 26.9285 236.684 27.0713C236.684 27.3571 236.684 27.4999 236.684 27.6428H224.585V24.9285H234.373L232.742 25.7856C232.742 24.9285 232.606 24.2142 232.334 23.6428C232.062 23.0713 231.518 22.4999 230.974 22.2142C230.431 21.9285 229.751 21.6428 229.071 21.6428C228.391 21.6428 227.712 21.7856 227.168 22.2142C226.624 22.4999 226.216 23.0713 225.808 23.6428C225.537 24.2142 225.401 24.9285 225.401 25.7856V26.4999C225.401 27.3571 225.537 28.0713 225.944 28.7856C226.352 29.3571 226.76 29.9285 227.44 30.2142C228.12 30.4999 228.799 30.7856 229.751 30.7856C230.567 30.7856 231.246 30.6428 231.79 30.3571C232.334 30.0713 232.878 29.7856 233.421 29.2142L235.733 31.7856C235.053 32.6428 234.237 33.2142 233.15 33.6428C232.062 34.2142 230.974 34.3571 229.615 34.3571Z" fill="#11192A"/>
<path d="M244.841 34.3571C243.617 34.3571 242.394 34.2142 241.17 33.9285C239.947 33.6428 239.131 33.2142 238.316 32.7856L239.675 29.4999C240.355 29.9285 241.17 30.2142 242.122 30.4999C243.074 30.7856 244.025 30.9285 244.841 30.9285C245.793 30.9285 246.608 30.7856 247.016 30.4999C247.424 30.2142 247.696 29.9285 247.696 29.4999C247.696 29.0713 247.56 28.7856 247.152 28.6428C246.88 28.4999 246.336 28.3571 245.929 28.2142C245.385 28.0713 244.841 28.0713 244.161 27.9285C243.481 27.7856 242.938 27.6428 242.258 27.4999C241.578 27.3571 241.034 27.0713 240.491 26.7856C239.947 26.4999 239.539 26.0713 239.131 25.4999C238.859 24.9285 238.587 24.2142 238.587 23.3571C238.587 22.3571 238.859 21.4999 239.403 20.7856C239.947 20.0713 240.763 19.3571 241.714 18.9285C242.666 18.4999 244.025 18.3571 245.385 18.3571C246.472 18.3571 247.424 18.4999 248.512 18.7856C249.599 19.0713 250.415 19.3571 251.094 19.7856L249.599 23.0713C248.919 22.6428 248.24 22.3571 247.424 22.2142C246.744 22.0713 246.064 21.9285 245.385 21.9285C244.433 21.9285 243.617 22.0713 243.21 22.3571C242.802 22.6428 242.53 22.9285 242.53 23.3571C242.53 23.7856 242.666 24.0713 243.074 24.2142C243.346 24.3571 243.889 24.4999 244.433 24.6428C244.977 24.7856 245.521 24.7856 246.2 24.9285C246.88 25.0713 247.424 25.2142 248.104 25.3571C248.783 25.4999 249.327 25.7856 249.871 26.0713C250.415 26.3571 250.823 26.7856 251.23 27.3571C251.502 27.9285 251.774 28.6428 251.774 29.4999C251.774 30.4999 251.502 31.3571 250.959 32.0713C250.415 32.7856 249.599 33.3571 248.512 33.7856C247.424 34.2142 246.336 34.3571 244.841 34.3571Z" fill="#11192A"/>
<path d="M260.067 34.3571C258.843 34.3571 257.62 34.2142 256.396 33.9285C255.173 33.6428 254.357 33.2142 253.541 32.7856L254.901 29.4999C255.581 29.9285 256.396 30.2142 257.348 30.4999C258.3 30.7856 259.251 30.9285 260.067 30.9285C261.019 30.9285 261.834 30.7856 262.242 30.4999C262.65 30.2142 262.922 29.9285 262.922 29.4999C262.922 29.0713 262.786 28.7856 262.378 28.6428C262.106 28.4999 261.562 28.3571 261.154 28.2142C260.611 28.0713 260.067 28.0713 259.387 27.9285C258.707 27.7856 258.164 27.6428 257.484 27.4999C256.804 27.3571 256.26 27.0713 255.717 26.7856C255.173 26.4999 254.765 26.0713 254.357 25.4999C254.085 24.9285 253.813 24.2142 253.813 23.3571C253.813 22.3571 254.085 21.4999 254.629 20.7856C255.173 20.0713 255.988 19.3571 256.94 18.9285C257.892 18.4999 259.251 18.3571 260.611 18.3571C261.698 18.3571 262.65 18.4999 263.737 18.7856C264.825 19.0713 265.641 19.3571 266.32 19.7856L264.825 23.0713C264.145 22.6428 263.466 22.3571 262.65 22.2142C261.97 22.0713 261.29 21.9285 260.611 21.9285C259.659 21.9285 258.843 22.0713 258.436 22.3571C258.028 22.6428 257.756 22.9285 257.756 23.3571C257.756 23.7856 257.892 24.0713 258.3 24.2142C258.571 24.3571 259.115 24.4999 259.659 24.6428C260.203 24.7856 260.747 24.7856 261.426 24.9285C262.106 25.0713 262.65 25.2142 263.33 25.3571C264.009 25.4999 264.553 25.7856 265.097 26.0713C265.641 26.3571 266.048 26.7856 266.456 27.3571C266.728 27.9285 267 28.6428 267 29.4999C267 30.4999 266.728 31.3571 266.185 32.0713C265.641 32.7856 264.825 33.3571 263.737 33.7856C262.65 34.2142 261.562 34.3571 260.067 34.3571Z" fill="#11192A"/>
</svg>
