<svg width="19" height="12" viewBox="0 0 19 12" fill="none" xmlns="http://www.w3.org/2000/svg">
<path d="M16.3993 10.0664H6.76074V11.5083H16.3993V10.0664Z" fill="#667085"/>
<path d="M18.0258 1.00115C17.9468 0.884896 17.8415 0.791079 17.7261 0.713578C17.7241 0.711539 16.2054 0.166992 15.357 0.166992C14.0651 0.166992 13.0992 0.674828 12.0219 1.31931C11.6271 1.55589 11.1715 1.82715 10.6875 2.11675C10.6834 2.11879 10.6774 2.12083 10.6733 2.11879L5.99374 1.30911C5.91882 1.29688 5.84187 1.30707 5.77302 1.33767L5.02785 1.67622C4.84561 1.75984 4.84359 2.01886 5.02178 2.10452L8.11788 3.60967C8.13408 3.61783 8.13408 3.64026 8.1199 3.64842C6.39062 4.68245 4.90838 5.56759 4.90838 5.56759C4.89218 5.57779 4.87598 5.58798 4.85979 5.59614C4.25636 5.94694 3.54156 6.05707 2.85714 5.90207L1.20076 5.52476C1.11774 5.5064 1.02864 5.50436 0.947646 5.53496C0.645933 5.64305 0.571012 6.03464 0.803877 6.24878L2.66275 7.96604C2.95434 8.23526 3.3735 8.31072 3.74001 8.16183L4.66337 7.78453L9.91803 5.55739L17.3434 2.4084C18.0784 2.10656 18.364 1.49675 18.0258 1.00115Z" fill="#667085"/>
<path d="M11.3189 5.63867L9.1158 6.56664L8.69867 8.4022C8.67437 8.51029 8.75537 8.61226 8.86471 8.61226L9.08138 8.6143C9.37702 8.61634 9.65443 8.46542 9.81237 8.21456L11.3189 5.63867Z" fill="#667085"/>
</svg>
